<?xml version="1.0" encoding="UTF-8"?>
<svg version="1.1" xmlns="http://www.w3.org/2000/svg" width="500" height="500">
<path d="M0 0 C165 0 330 0 500 0 C500 165 500 330 500 500 C335 500 170 500 0 500 C0 335 0 170 0 0 Z " fill="#E0E0E0" transform="translate(0,0)"/>
<path d="M0 0 C1.74194506 -0.01145062 3.483857 -0.03179101 5.22558594 -0.06152344 C21.6936304 -0.34117242 37.32524024 1.72759165 52.69946289 7.92016602 C53.56055664 8.25862549 54.42165039 8.59708496 55.30883789 8.94580078 C76.3069949 17.43217217 94.35872927 29.04825974 110.19946289 45.29516602 C110.82981445 45.88040039 111.46016602 46.46563477 112.10961914 47.06860352 C135.87045862 69.61416196 152.94801121 105.98385404 154.34472656 138.69750977 C154.36516435 141.87965132 154.38514527 145.06167937 154.38476562 148.24389648 C154.38692791 150.26251104 154.40505761 152.28055577 154.42407227 154.29907227 C154.48638116 196.79373963 136.39120415 233.08160613 107.97290039 263.69360352 C106.19946289 265.29516602 106.19946289 265.29516602 104.19946289 265.29516602 C95.02043364 249.10313601 88.21426195 232.5452083 82.13745117 214.99951172 C79.16645212 206.43372398 76.16736426 197.87766695 73.17251587 189.32019615 C71.67930949 185.05067836 70.19749562 180.77731411 68.71899414 176.50268555 C64.47234955 164.2707882 60.06992283 152.11309087 55.37915039 140.04516602 C54.93410156 138.8895517 54.48905273 137.73393738 54.03051758 136.54330444 C47.85378309 120.85401034 39.64890836 107.59516942 23.97290039 100.25219727 C14.56777136 96.60984729 4.76158286 97.99403796 -4.80053711 100.29516602 C-6.50849254 100.67188346 -8.21680986 101.04696506 -9.92553711 101.42016602 C-11.20428711 101.70891602 -12.48303711 101.99766602 -13.80053711 102.29516602 C-13.80053711 102.95516602 -13.80053711 103.61516602 -13.80053711 104.29516602 C-12.30973633 103.81176758 -12.30973633 103.81176758 -10.78881836 103.31860352 C-1.98801707 100.81925558 8.69613955 101.02304454 17.01586914 104.95141602 C20.82478547 107.29536453 24.03846765 110.14877122 27.19946289 113.29516602 C27.78856445 113.73731445 28.37766602 114.17946289 28.98461914 114.63500977 C30.19946289 116.29516602 30.19946289 116.29516602 30.02368164 118.77514648 C28.91628329 123.50455095 27.1077677 127.80625381 25.22680664 132.27563477 C24.82547012 133.24310135 24.42413361 134.21056793 24.01063538 135.20735168 C22.72532639 138.30162325 21.4312591 141.39214451 20.13696289 144.48266602 C19.29329274 146.51042325 18.45018851 148.53841604 17.60766602 150.56665039 C12.50981032 162.82550533 7.36129882 175.06313542 2.19946289 187.29516602 C-5.74681138 183.57260593 -11.52920957 175.7340242 -17.15600586 169.15844727 C-19.34449081 166.67885743 -21.69597724 164.38895422 -24.05444336 162.07250977 C-26.4859132 159.59752369 -28.71626262 156.96503497 -30.97631836 154.33422852 C-32.8800097 152.20633369 -34.87831691 150.22227214 -36.92553711 148.23266602 C-40.38208543 144.83664092 -43.11504647 141.32340197 -45.80053711 137.29516602 C-45.25526367 136.7009082 -44.70999023 136.10665039 -44.14819336 135.49438477 C-40.09606169 131.04050329 -36.14472207 126.54425416 -32.36303711 121.85766602 C-28.50228574 117.08376302 -24.42616636 112.56128174 -20.26928711 108.04516602 C-17.07850502 104.4908771 -14.09929768 100.78545887 -11.10131836 97.06860352 C-7.8851464 93.1917239 -4.48583138 89.49669124 -1.06225586 85.80297852 C1.22634463 83.338391 1.22634463 83.338391 3.17602539 80.67797852 C5.35051982 78.11728045 7.35843963 76.70932716 10.26196289 75.04516602 C11.11918945 74.54500977 11.97641602 74.04485352 12.85961914 73.52954102 C16.35369514 71.68625551 18.99467495 71.17625605 22.88696289 71.23266602 C23.69520508 71.24168945 24.50344727 71.25071289 25.33618164 71.26000977 C25.95106445 71.27161133 26.56594727 71.28321289 27.19946289 71.29516602 C27.19946289 70.63516602 27.19946289 69.97516602 27.19946289 69.29516602 C12.34946289 69.29516602 -2.50053711 69.29516602 -17.80053711 69.29516602 C-17.80053711 69.95516602 -17.80053711 70.61516602 -17.80053711 71.29516602 C-16.87241211 71.23329102 -15.94428711 71.17141602 -14.98803711 71.10766602 C-11.80053711 71.29516602 -11.80053711 71.29516602 -9.86303711 72.35766602 C-8.12604277 75.52512629 -9.0001525 77.85422683 -9.80053711 81.29516602 C-11.38962045 83.56198908 -12.8711417 85.42198976 -14.73803711 87.42016602 C-15.75229103 88.55984197 -16.76395223 89.70182986 -17.77319336 90.84594727 C-18.28382324 91.42038574 -18.79445312 91.99482422 -19.32055664 92.58666992 C-21.56209059 95.17430677 -23.60968961 97.87694806 -25.67553711 100.60766602 C-29.43342906 105.5640657 -33.30197092 110.41659675 -37.23803711 115.23266602 C-42.38713972 121.53369144 -47.4513817 127.89430685 -52.46069336 134.30688477 C-54.55679766 136.98387941 -56.6712065 139.6445674 -58.80053711 142.29516602 C-55.53148965 149.46802744 -49.31013841 154.83955858 -43.76928711 160.29516602 C-41.24628252 162.8582183 -38.92490893 165.56862426 -36.58178711 168.29516602 C-34.72628501 170.3785368 -32.7883061 172.33797808 -30.80053711 174.29516602 C-27.55023728 177.49546123 -24.55329466 180.83741178 -21.58178711 184.29516602 C-19.72628501 186.3785368 -17.7883061 188.33797808 -15.80053711 190.29516602 C-15.1444043 190.95645508 -14.48827148 191.61774414 -13.81225586 192.29907227 C-12.44971416 193.65103112 -11.05482061 194.97101358 -9.63256836 196.26000977 C-8.63290039 197.23647461 -8.63290039 197.23647461 -7.61303711 198.23266602 C-7.00073242 198.79856445 -6.38842773 199.36446289 -5.75756836 199.94750977 C-4.107823 203.99443613 -6.221778 207.47241686 -7.80053711 211.29516602 C-8.30274868 212.53645255 -8.80494479 213.77774533 -9.30712891 215.01904297 C-10.77161339 218.60654894 -12.27345991 222.17727015 -13.78857422 225.74365234 C-14.73908142 227.98512869 -15.67919568 230.23078213 -16.61889648 232.47680664 C-17.22959734 233.92043153 -17.84090471 235.36380003 -18.45288086 236.80688477 C-18.72905746 237.46951828 -19.00523407 238.13215179 -19.28977966 238.81486511 C-22.49382529 246.29654234 -26.07657085 252.32684674 -33.80053711 255.54516602 C-36.61700212 256.24928227 -38.91534342 256.46488329 -41.80053711 256.29516602 C-41.80053711 256.95516602 -41.80053711 257.61516602 -41.80053711 258.29516602 C-27.61053711 258.29516602 -13.42053711 258.29516602 1.19946289 258.29516602 C1.19946289 257.63516602 1.19946289 256.97516602 1.19946289 256.29516602 C0.31258789 256.41891602 -0.57428711 256.54266602 -1.48803711 256.67016602 C-5.27062577 256.24194843 -6.46512993 255.13719511 -8.91772461 252.29125977 C-10.78061948 248.07913907 -9.99491222 243.93752578 -8.69897461 239.65478516 C-8.20323688 238.37522034 -7.69488521 237.10048744 -7.17553711 235.83032227 C-6.90918457 235.15214951 -6.64283203 234.47397675 -6.3684082 233.7752533 C-5.52351306 231.63147727 -4.66237909 229.49467743 -3.80053711 227.35766602 C-3.22132224 225.89650904 -2.64318626 224.43492389 -2.06616211 222.97290039 C-0.65671198 219.4085841 0.76732914 215.85042535 2.19946289 212.29516602 C5.06204932 213.5874744 7.04531552 214.91949819 9.19555664 217.20141602 C9.74759766 217.77569336 10.29963867 218.3499707 10.8684082 218.94165039 C11.45203125 219.55331055 12.0356543 220.1649707 12.63696289 220.79516602 C27.88378139 236.38650012 46.15658686 249.07312149 68.19946289 252.29516602 C69.9899707 252.19848633 69.9899707 252.19848633 71.81665039 252.09985352 C75.79131728 251.90325709 78.46034639 251.88231093 82.19946289 253.29516602 C86.01974648 257.59573602 88.1547749 263.04527897 90.33374023 268.30493164 C91.40907897 270.77705837 92.73803605 273.03289536 94.19946289 275.29516602 C65.81049579 295.20007399 35.48188662 305.75027766 0.63696289 305.67016602 C-0.25105011 305.66962219 -1.13906311 305.66907837 -2.0539856 305.66851807 C-15.00472996 305.6320013 -27.35122539 305.19373503 -39.80053711 301.29516602 C-40.87271484 300.97370605 -40.87271484 300.97370605 -41.96655273 300.64575195 C-47.01363969 299.10196356 -51.91895378 297.29886964 -56.80053711 295.29516602 C-57.49211914 295.01189453 -58.18370117 294.72862305 -58.89624023 294.43676758 C-96.58192367 278.63253055 -126.34706514 247.56531824 -141.79760742 209.86206055 C-143.72970321 204.74850382 -145.3342391 199.55919988 -146.80053711 194.29516602 C-147.10362793 193.22129639 -147.10362793 193.22129639 -147.4128418 192.12573242 C-150.97371782 179.30832143 -152.00577534 167.14226792 -152.04077148 153.89331055 C-152.05042873 151.6948388 -152.08152801 149.49732417 -152.11303711 147.29907227 C-152.21515924 133.75475712 -149.99608378 121.06122782 -145.98803711 108.10766602 C-145.72941895 107.26308838 -145.47080078 106.41851074 -145.2043457 105.54833984 C-142.97913361 98.48790766 -140.19145144 91.87946569 -136.80053711 85.29516602 C-135.94202148 83.53172852 -135.94202148 83.53172852 -135.06616211 81.73266602 C-117.9395488 47.2941647 -85.45772626 19.62864718 -49.12109375 7.26220703 C-32.69569404 1.92266904 -17.19928519 0.07821485 0 0 Z " fill="#010101" transform="translate(243.800537109375,97.704833984375)"/>
<path d="M0 0 C14.85 0 29.7 0 45 0 C45 0.66 45 1.32 45 2 C43.87464844 2.11214844 43.87464844 2.11214844 42.7265625 2.2265625 C27.78258692 4.14631755 20.76914954 11.88137291 11.64355469 23.00537109 C9.05620724 26.14539317 6.40220238 29.22726762 3.75 32.3125 C3.25346924 32.89362549 2.75693848 33.47475098 2.24536133 34.07348633 C-0.68105711 37.49340025 -3.65760715 40.85829364 -6.6875 44.1875 C-10.56648937 48.45929842 -14.21803625 52.88669505 -17.84765625 57.37109375 C-20.81176863 60.99150687 -23.88739268 64.5070741 -27 68 C-22.83907299 74.06306507 -18.04931817 79.07589262 -12.82495117 84.20629883 C-9.22038279 87.75302058 -5.81428162 91.38614134 -2.5390625 95.2421875 C-0.39518115 97.69078295 1.92657539 99.93809508 4.25 102.21484375 C6.09335426 104.09522968 7.79471921 106.05651121 9.5 108.0625 C12.71141373 111.79822618 16.18623381 114.88672148 20 118 C20.16698395 117.4723555 20.3339679 116.944711 20.50601196 116.40107727 C22.48229133 110.30119506 24.80684552 104.39681961 27.2734375 98.48046875 C27.67905914 97.50064529 28.08468079 96.52082184 28.50259399 95.51130676 C29.79050268 92.40216227 31.08268214 89.29481402 32.375 86.1875 C33.23465641 84.11404894 34.09403381 82.04048218 34.953125 79.96679688 C35.37080139 78.9596463 35.78847778 77.95249573 36.21881104 76.91482544 C37.0397776 74.93409385 37.85958212 72.95288017 38.67816162 70.97116089 C40.32987932 66.9800472 41.98503461 62.99534047 43.75097656 59.05322266 C44.21729492 58.00054199 44.68361328 56.94786133 45.1640625 55.86328125 C45.55287598 55.01677002 45.94168945 54.17025879 46.34228516 53.2980957 C47.14669822 50.48742749 46.83897548 48.77685354 46 46 C41.51909257 39.75270587 34.56559769 35.36601069 27 34 C24.38439738 33.90468329 21.80202632 33.86051509 19.1875 33.875 C18.50107422 33.87113281 17.81464844 33.86726563 17.10742188 33.86328125 C12.64144643 33.87173153 8.40685936 34.27416434 4 35 C4 34.34 4 33.68 4 33 C10.31650509 30.50358714 16.18576608 28.30973791 23 28 C23.91523438 27.93683594 24.83046875 27.87367188 25.7734375 27.80859375 C36.81882168 27.36848204 46.56803825 30.77703277 55 38 C63.63232351 47.17184373 69.32429418 57.89387264 73.8125 69.5625 C74.2669751 70.73014893 74.7214502 71.89779785 75.18969727 73.10083008 C79.90682576 85.35427266 84.15436432 97.77753739 88.4375 110.1875 C88.80415771 111.249617 89.17081543 112.31173401 89.54858398 113.40603638 C90.64993831 116.59738926 91.75082998 119.78890135 92.8515625 122.98046875 C110.13520333 180.76003714 110.13520333 180.76003714 149 224 C156.04021963 227.29605756 162.42216932 229.14880116 170.1875 229.5625 C171.31188477 229.62727539 171.31188477 229.62727539 172.45898438 229.69335938 C174.30578375 229.79922685 176.15286834 229.9000976 178 230 C178 230.66 178 231.32 178 232 C165.80960882 236.45989921 152.92800038 236.66325561 140.9609375 231.4765625 C122.47359344 222.25728011 110.05404356 206.12829704 101 188 C100.63604837 186.67469698 100.29443912 185.34245838 100 184 C99.175 184.04640625 98.35 184.0928125 97.5 184.140625 C72.17588988 184.93200344 52.34220871 172.80929892 34.23974609 156.03833008 C30.57985845 152.59842569 27.01540997 149.07078246 23.5234375 145.4609375 C22.04566676 143.89937709 22.04566676 143.89937709 20 143 C19.88213135 143.87019775 19.7642627 144.74039551 19.64282227 145.63696289 C19.00640169 148.96650843 18.04032954 151.69634795 16.71484375 154.80859375 C16.26689453 155.88560547 15.81894531 156.96261719 15.35742188 158.07226562 C14.41161397 160.31384337 13.46109695 162.55344003 12.50585938 164.79101562 C9.16702086 172.64892502 9.16702086 172.64892502 9 181 C10.47616674 183.9703869 10.47616674 183.9703869 13 186 C16.13863704 186.88593998 16.13863704 186.88593998 19 187 C19 187.66 19 188.32 19 189 C4.81 189 -9.38 189 -24 189 C-24 188.34 -24 187.68 -24 187 C-23.27554688 186.84144531 -22.55109375 186.68289063 -21.8046875 186.51953125 C-20.83789062 186.28621094 -19.87109375 186.05289063 -18.875 185.8125 C-17.92367187 185.59207031 -16.97234375 185.37164062 -15.9921875 185.14453125 C-10.51497937 183.04946339 -7.34782986 180.1530733 -4.796875 174.98046875 C-4.09724663 173.39032802 -3.41588183 171.79206499 -2.75 170.1875 C-2.38156982 169.32962891 -2.01313965 168.47175781 -1.63354492 167.58789062 C-0.83835469 165.72873685 -0.05045488 163.86645163 0.73095703 162.00146484 C2.07811778 158.81524047 3.47184241 155.65194868 4.87109375 152.48828125 C5.8112641 150.32611528 6.75009124 148.16336469 7.6875 146 C8.14608398 144.96770264 8.60466797 143.93540527 9.07714844 142.87182617 C9.48868164 141.90349854 9.90021484 140.9351709 10.32421875 139.9375 C10.69635498 139.08027344 11.06849121 138.22304688 11.4519043 137.33984375 C12.21481266 135.01621551 12.21481266 135.01621551 11.27539062 132.88574219 C10.04102042 131.06065118 8.78660526 129.48679541 7.26953125 127.890625 C6.72176025 127.30933838 6.17398926 126.72805176 5.60961914 126.12915039 C4.72004517 125.19897095 4.72004517 125.19897095 3.8125 124.25 C2.5364461 122.89975114 1.26040485 121.54949034 -0.015625 120.19921875 C-0.67498047 119.50489746 -1.33433594 118.81057617 -2.01367188 118.09521484 C-5.17039758 114.76544345 -8.30252141 111.41272949 -11.4375 108.0625 C-15.287494 103.95439741 -19.14080263 99.84945869 -23 95.75 C-29.4292889 88.91532452 -35.84231679 82.08231935 -42 75 C-40.32197408 71.13772805 -37.79655142 68.01326681 -35.1875 64.75 C-34.70611572 64.1422876 -34.22473145 63.5345752 -33.72875977 62.90844727 C-29.45645849 57.53132301 -25.11227481 52.21279833 -20.76831055 46.89355469 C-16.6153673 41.79455041 -12.59785726 36.61117219 -8.62890625 31.3671875 C-6.66489325 28.80958217 -4.61527069 26.34019866 -2.52734375 23.8828125 C-1.93244141 23.17576172 -1.33753906 22.46871094 -0.72460938 21.74023438 C0.43796585 20.36420271 1.611936 18.99769118 2.79882812 17.64257812 C6.24404872 13.54589763 7.99308058 10.57705435 8 5 C5.4345406 2.4345406 3.52313332 2.45953913 0 2 C0 1.34 0 0.68 0 0 Z " fill="#F9F9F9" transform="translate(226,167)"/>
<path d="M0 0 C0.66 0.66 1.32 1.32 2 2 C1.34 2 0.68 2 0 2 C0 2.66 0 3.32 0 4 C1.49080078 3.51660156 1.49080078 3.51660156 3.01171875 3.0234375 C11.81252004 0.52408956 22.49667666 0.72787852 30.81640625 4.65625 C34.62532258 7.00019851 37.83900476 9.8536052 41 13 C41.58910156 13.44214844 42.17820312 13.88429687 42.78515625 14.33984375 C44 16 44 16 43.82421875 18.47998047 C42.7168204 23.20938493 40.90830481 27.5110878 39.02734375 31.98046875 C38.42533897 33.43166862 38.42533897 33.43166862 37.81117249 34.91218567 C36.5258635 38.00645724 35.23179621 41.09697849 33.9375 44.1875 C33.09382985 46.21525724 32.25072562 48.24325003 31.40820312 50.27148438 C26.31034743 62.53033931 21.16183593 74.76796941 16 87 C8.05372573 83.27743991 2.27132754 75.43885818 -3.35546875 68.86328125 C-5.5439537 66.38369142 -7.89544013 64.0937882 -10.25390625 61.77734375 C-12.68537609 59.30235767 -14.91572551 56.66986895 -17.17578125 54.0390625 C-19.07947259 51.91116768 -21.0777798 49.92710612 -23.125 47.9375 C-26.58154832 44.5414749 -29.31450936 41.02823596 -32 37 C-31.45472656 36.40574219 -30.90945312 35.81148437 -30.34765625 35.19921875 C-26.29552458 30.74533727 -22.34418496 26.24908814 -18.5625 21.5625 C-14.6368686 16.70711379 -10.50548755 12.08643584 -6.26171875 7.5078125 C-4.06962544 5.07720126 -2.01764586 2.57630752 0 0 Z " fill="#010101" transform="translate(230,198)"/>
<path d="M0 0 C15.18 0 30.36 0 46 0 C46 0.66 46 1.32 46 2 C45.40832031 2.08636719 44.81664062 2.17273438 44.20703125 2.26171875 C38.65855945 3.24831488 35.65250778 4.43436527 32 9 C30.75557388 11.48885225 30.86864142 13.16029255 30.85955811 15.94561768 C30.85384796 16.9914653 30.84813782 18.03731293 30.84225464 19.11485291 C30.84113678 20.2670784 30.84001892 21.41930389 30.83886719 22.60644531 C30.83390228 23.81629593 30.82893738 25.02614655 30.82382202 26.2726593 C30.81169943 29.59723401 30.80425126 32.92174569 30.79981136 36.24633503 C30.79688103 38.32385086 30.79277623 40.40136116 30.78830719 42.47887421 C30.77462842 48.98008392 30.7649644 55.48128102 30.7611053 61.98250413 C30.75662759 69.48465069 30.73909478 76.98661479 30.7101047 84.48870587 C30.68847237 90.28837114 30.67840014 96.08798513 30.67706418 101.88769031 C30.67601698 105.35095146 30.67012792 108.81404118 30.65224457 112.27725983 C30.63266908 116.14355828 30.63705907 120.00962977 30.64355469 123.87597656 C30.6343399 125.02010513 30.62512512 126.1642337 30.6156311 127.34303284 C30.64503933 132.92525151 30.67455944 137.26268032 34 142 C37.88697394 144.50493876 41.4333915 145.45635613 46 146 C46 146.66 46 147.32 46 148 C30.82 148 15.64 148 0 148 C0 147.34 0 146.68 0 146 C0.67546875 145.84144531 1.3509375 145.68289063 2.046875 145.51953125 C7.53115393 144.08505945 10.97441738 143.13033575 14 138 C15.24523347 135.50953307 15.13136539 133.83485493 15.14044189 131.0476532 C15.14615204 130.00036041 15.15186218 128.95306763 15.15774536 127.8740387 C15.15942215 126.14334389 15.15942215 126.14334389 15.16113281 124.37768555 C15.16609772 123.16622864 15.17106262 121.95477173 15.17617798 120.706604 C15.18829996 117.37796436 15.19574839 114.04938765 15.20018864 110.7207334 C15.20311866 108.64121526 15.20722337 106.56170264 15.21169281 104.48218727 C15.22537038 97.97617419 15.2350354 91.47017373 15.2388947 84.96414727 C15.24337433 77.45350077 15.26091653 69.94303636 15.2898953 62.43244523 C15.31151473 56.62770009 15.32159914 50.82300617 15.32293582 45.0182212 C15.3239838 41.55107967 15.32988963 38.08410926 15.34775543 34.61701012 C15.36730328 30.74811307 15.36294607 26.87944332 15.35644531 23.01049805 C15.3656601 21.8627742 15.37487488 20.71505035 15.3843689 19.532547 C15.37879974 18.47679474 15.37323059 17.42104248 15.36749268 16.33329773 C15.36895924 15.41871135 15.3704258 14.50412497 15.3719368 13.56182384 C14.91577973 10.41990815 13.85707106 8.55732219 12 6 C8.07947885 3.56056462 4.56611266 2.54358484 0 2 C0 1.34 0 0.68 0 0 Z " fill="#FBFBFB" transform="translate(147,167)"/>
<path d="M0 0 C3.18852004 2.12568003 3.51279861 2.6153028 4.76953125 6.00390625 C5.09445557 6.87055908 5.41937988 7.73721191 5.75415039 8.63012695 C6.10340576 9.59781006 6.45266113 10.56549316 6.8125 11.5625 C7.18560303 12.57723389 7.55870605 13.59196777 7.94311523 14.63745117 C11.94829159 25.64870196 15.7545375 36.73186341 19.5625 47.8125 C20.04126083 49.20071457 20.04126083 49.20071457 20.5296936 50.61697388 C21.4429846 53.27024194 22.34956793 55.92570028 23.25390625 58.58203125 C23.53159851 59.38731262 23.80929077 60.19259399 24.09539795 61.02227783 C25.14482829 64.12586577 26 66.70004964 26 70 C9.17 70 -7.66 70 -25 70 C-26.0276359 65.88945638 -26.04526976 65.29975743 -24.58813477 61.640625 C-24.25350723 60.78452637 -23.9188797 59.92842773 -23.57411194 59.04638672 C-23.20031906 58.1235791 -22.82652618 57.20077148 -22.44140625 56.25 C-21.8684507 54.79811279 -21.8684507 54.79811279 -21.28392029 53.31689453 C-20.0538121 50.20703385 -18.80840731 47.10356016 -17.5625 44 C-16.75745318 41.97175491 -15.95340634 39.9431126 -15.15039062 37.9140625 C-13.17128281 32.92120683 -11.17937465 27.93359775 -9.18145752 22.94824219 C-7.99164034 19.97913906 -6.8038694 17.0092249 -5.61669922 14.0390625 C-3.74586585 9.35881382 -1.87343076 4.67920956 0 0 Z " fill="#030303" transform="translate(279,226)"/>
<path d="M0 0 C15.18 0 30.36 0 46 0 C48.124375 6.001875 50.24875 12.00375 52.4375 18.1875 C53.4418811 21.01671021 53.4418811 21.01671021 54.46655273 23.90307617 C54.99750192 25.40794554 55.52819917 26.91290382 56.05859375 28.41796875 C56.33417114 29.1912854 56.60974854 29.96460205 56.89367676 30.76135254 C58.20346279 34.48791279 59.36963597 38.08492827 60 42 C40.54382048 39.22054578 23.65068589 25.24851533 10 12 C9.50741699 11.52788086 9.01483398 11.05576172 8.50732422 10.56933594 C2.35627363 4.66384032 2.35627363 4.66384032 0 2 C0 1.34 0 0.68 0 0 Z " fill="#030303" transform="translate(262,303)"/>
<path d="M0 0 C0.66 0.33 1.32 0.66 2 1 C2.625 3.5625 2.625 3.5625 3 6 C3.33 5.34 3.66 4.68 4 4 C4.66 4 5.32 4 6 4 C4.87548273 6.9719385 3.77706209 9.33440687 2 12 C1.34 12 0.68 12 0 12 C-0.33 9.69 -0.66 7.38 -1 5 C-1.99 6.485 -1.99 6.485 -3 8 C-3.66 7.67 -4.32 7.34 -5 7 C-3.35 4.69 -1.7 2.38 0 0 Z " fill="#E6E6E6" transform="translate(315,141)"/>
<path d="M0 0 C1.98 0 3.96 0 6 0 C6 0.66 6 1.32 6 2 C4.35 2 2.7 2 1 2 C1 2.66 1 3.32 1 4 C2.32 4 3.64 4 5 4 C5 4.66 5 5.32 5 6 C3.68 6 2.36 6 1 6 C1 6.66 1 7.32 1 8 C2.32 8 3.64 8 5 8 C5 8.66 5 9.32 5 10 C3.33388095 10.042721 1.66617115 10.04063832 0 10 C-1 9 -1 9 -1.125 5.5625 C-1 2 -1 2 0 0 Z " fill="#C6C6C6" transform="translate(261,122)"/>
<path d="M0 0 C0 3.3 0 6.6 0 10 C-0.66 10 -1.32 10 -2 10 C-3 9 -4 8 -5 7 C-5.99 6.67 -6.98 6.34 -8 6 C-7.0479279 4.99403703 -6.08812654 3.99538437 -5.125 3 C-4.59132813 2.443125 -4.05765625 1.88625 -3.5078125 1.3125 C-2 0 -2 0 0 0 Z " fill="#E5E5E5" transform="translate(301,133)"/>
<path d="M0 0 C-1.32 2.97 -2.64 5.94 -4 9 C-4.66 7.68 -5.32 6.36 -6 5 C-8.03317007 3.26574227 -8.03317007 3.26574227 -10 2 C-3.375 -1.125 -3.375 -1.125 0 0 Z " fill="#C3C3C3" transform="translate(345,166)"/>
<path d="M0 0 C0.66 0 1.32 0 2 0 C2.33 0.66 2.66 1.32 3 2 C4.32 1.34 5.64 0.68 7 0 C6.484375 0.763125 5.96875 1.52625 5.4375 2.3125 C4.963125 3.199375 4.48875 4.08625 4 5 C4.33 5.99 4.66 6.98 5 8 C5.66 8.33 6.32 8.66 7 9 C6.401875 8.814375 5.80375 8.62875 5.1875 8.4375 C2.83591238 7.77906313 2.83591238 7.77906313 0 9 C0 6.03 0 3.06 0 0 Z " fill="#D5D5D5" transform="translate(242,121)"/>
<path d="M0 0 C0.66 0 1.32 0 2 0 C2.66 1.32 3.32 2.64 4 4 C5.32 3.34 6.64 2.68 8 2 C7.0409375 3.1446875 7.0409375 3.1446875 6.0625 4.3125 C3.85767219 6.88246713 3.85767219 6.88246713 3 10 C2.34 10 1.68 10 1 10 C0.67 6.7 0.34 3.4 0 0 Z " fill="#C5C5C5" transform="translate(278,125)"/>
<path d="M0 0 C0.66 0 1.32 0 2 0 C2.33 2.31 2.66 4.62 3 7 C2.34 7 1.68 7 1 7 C-0.625 5 -0.625 5 -2 3 C-1.34 2.01 -0.68 1.02 0 0 Z " fill="#A3A3A3" transform="translate(298,136)"/>
<path d="M0 0 C0 0.66 0 1.32 0 2 C-2.31 2.33 -4.62 2.66 -7 3 C-7 2.34 -7 1.68 -7 1 C-3.375 -1.125 -3.375 -1.125 0 0 Z " fill="#E4E4E4" transform="translate(237,199)"/>
<path d="M0 0 C0.33 0 0.66 0 1 0 C1.33 1.65 1.66 3.3 2 5 C2.33 4.34 2.66 3.68 3 3 C3.66 3 4.32 3 5 3 C4.34 4.65 3.68 6.3 3 8 C2.01 7.67 1.02 7.34 0 7 C0 4.69 0 2.38 0 0 Z " fill="#A4A4A4" transform="translate(316,142)"/>
</svg>
